# xmcd
#
# Track frame offsets:
# 150
# 15763
# 25111
# 41489
# 57629
# 73104
# 85028
# 98598
# 111533
# 124449
# 140248
# 153313
# 166687
# 178866
#
# Disc length: 2585 seconds
#
#
# Revision: 3
# Processed by: cddbd v1.5.2PL0 Copyright (c) Steve Scherf et al.
# Submitted via: FreeRIP 2.945 
#
DISCID=ba0a170e
DTITLE=Saudades do Sertão4 - Saudades do Sertão4
DYEAR=2004
DGENRE=Country
TTITLE0=Inezita Barrozo - Moda da pinga
TTITLE1=Milionário and José Rico - Estrada da vida
TTITLE2=Carlos Cezar and Cristiano - A volta do boiadeiro
TTITLE3=Juliano César - Rumo a Goiania
TTITLE4=Silveira and Silveira - Folia de Reis
TTITLE5=Zé Bettio - Feijão Queimado
TTITLE6=Irmãs Galvão - Quem diria
TTITLE7=Sergio Reis - Saudade da minha terra
TTITLE8=As Mineirinhas - Deixe quem falem de nós
TTITLE9=Barrerito - Nossos momentos de amor
TTITLE10=Iridio and Irineu - Recordação de boiadeiro
TTITLE11=As Marcianas - Xonado de novo
TTITLE12=Tonico and Tinoco - Moreninha linda
TTITLE13=Teodoro and Sampaio - O Garrafão
EXTD=
EXTT0=
EXTT1=
EXTT2=
EXTT3=
EXTT4=
EXTT5=
EXTT6=
EXTT7=
EXTT8=
EXTT9=
EXTT10=
EXTT11=
EXTT12=
EXTT13=
PLAYORDER=
